<svg xmlns="http://www.w3.org/2000/svg" viewBox="0 0 64 64">
  <defs>
    <radialGradient id="paper" cx="40%" cy="36%" r="70%">
      <stop offset="0" stop-color="#f6e7bd"/>
      <stop offset=".6" stop-color="#e2c586"/>
      <stop offset="1" stop-color="#b98e4c"/>
    </radialGradient>
    <clipPath id="g"><circle cx="32" cy="32" r="28"/></clipPath>
  </defs>
  <circle cx="32" cy="32" r="28" fill="url(#paper)"/>
  <g clip-path="url(#g)">
    <!-- 대륙 (유럽·아프리카·아시아 쪽) -->
    <g fill="#8a5a2b" fill-opacity=".62">
      <path d="M22 13c4-3 10-3 13 0 3 1 7 0 10 2 5 2 9 6 11 11-3 1-6 0-8 2-2 1-4 4-7 3-2-1-3 1-5 1l-2-3c-2 0-3-2-5-2-2 1-4 0-5-2-2-1-4-1-4-3 0-3 1-6 2-9z"/>
      <path d="M26 30c3-1 7 0 9 2 2 1 5 1 6 4 1 4-1 7-3 10-2 3-2 7-5 9-2 1-3-1-3-3-1-3-3-5-3-8 0-2-2-4-3-6 0-3 0-6 2-8z"/>
      <path d="M47 42c3-1 6 1 7 3-1 3-4 4-7 3-1-2-1-4 0-6z"/>
    </g>
    <!-- 경선·위선 -->
    <g fill="none" stroke="#5b3a1a" stroke-opacity=".55" stroke-width="1.3">
      <ellipse cx="32" cy="32" rx="11" ry="28"/>
      <ellipse cx="32" cy="32" rx="21" ry="28"/>
      <line x1="32" y1="4" x2="32" y2="60"/>
      <path d="M4 32h56M7.5 19h49M7.5 45h49"/>
    </g>
  </g>
  <circle cx="32" cy="32" r="28" fill="none" stroke="#4a2e14" stroke-width="3"/>
</svg>
